<?xml version='1.0' encoding='utf-8'?>
<svg xmlns="http://www.w3.org/2000/svg" id="Layer_1" data-name="Layer 1" viewBox="0 0 566.36 733.1">
  <defs>
    <style>
      .cls-1 {
        fill: #60924a;
      }

      .cls-2 {
        fill: #263776;
      }

      .cls-3 {
        fill: #f3e0b6;
      }

      .cls-4 {
        fill: #df804b;
      }
    </style>
  </defs>
  <rect y="562.14" width="283.3" height="171.86" fill="white" stroke="black" stroke-width="1" />
  <rect x=".57" y="391.44" width="283.3" height="171.86" fill="white" stroke="black" stroke-width="1" />
  <rect y="171.11" width="283.3" height="222.29" fill="white" stroke="black" stroke-width="1" />
  <rect width="283.3" height="171.86" fill="white" stroke="black" stroke-width="1" />
  <rect x="283.06" y="561.66" width="283.3" height="171.44" fill="white" stroke="black" stroke-width="1" />
  <rect x="283.63" y="391.38" width="283.3" height="171.44" fill="white" stroke="black" stroke-width="1" />
  <rect x="283.06" y="171.6" width="283.3" height="221.75" fill="white" stroke="black" stroke-width="1" />
  <rect x="283.06" y=".9" width="283.3" height="171.44" fill="white" stroke="black" stroke-width="1" />
  <polygon points="292.03 538.35 179.81 425.27 37.59 497.06 110.45 355.39 -1.78 242.32 155.48 267.83 228.34 126.16 252.67 283.6 409.92 309.11 267.7 380.9 292.03 538.35" fill="white" stroke="black" stroke-width="1" />
<text x="141.65" y="648.0699999999999" font-size="24" fill="black" text-anchor="middle" dominant-baseline="central">1</text><text x="142.22" y="477.37" font-size="24" fill="black" text-anchor="middle" dominant-baseline="central">3</text><text x="141.65" y="282.255" font-size="24" fill="black" text-anchor="middle" dominant-baseline="central">2</text><text x="141.65" y="85.93" font-size="24" fill="black" text-anchor="middle" dominant-baseline="central">3</text><text x="424.71000000000004" y="647.38" font-size="24" fill="black" text-anchor="middle" dominant-baseline="central">2</text><text x="425.28" y="477.1" font-size="24" fill="black" text-anchor="middle" dominant-baseline="central">0</text><text x="424.71000000000004" y="282.475" font-size="24" fill="black" text-anchor="middle" dominant-baseline="central">1</text><text x="424.71000000000004" y="86.62" font-size="24" fill="black" text-anchor="middle" dominant-baseline="central">2</text><text x="202.20363636363635" y="360.3945454545455" font-size="24" fill="black" text-anchor="middle" dominant-baseline="central">0</text></svg>